<?xml version="1.0" encoding="UTF-8" standalone="no"?>
<svg
   version="1.0"
   width="500.000000pt"
   height="500.000000pt"
   viewBox="0 0 500.000000 500.000000"
   preserveAspectRatio="xMidYMid meet"
   id="svg6"
   sodipodi:docname="safari-pinned-tab.svg"
   inkscape:version="1.4.2 (f4327f4, 2025-05-13)"
   xmlns:inkscape="http://www.inkscape.org/namespaces/inkscape"
   xmlns:sodipodi="http://sodipodi.sourceforge.net/DTD/sodipodi-0.dtd"
   xmlns:xlink="http://www.w3.org/1999/xlink"
   xmlns="http://www.w3.org/2000/svg"
   xmlns:svg="http://www.w3.org/2000/svg">
  <defs
     id="defs6">
    <linearGradient
       id="a"
       gradientUnits="userSpaceOnUse"
       x1="1959.712"
       y1="737.10699"
       x2="26066.213"
       y2="737.10699"
       gradientTransform="matrix(0.0283,0,0,-0.0283,248.36,225.244)">
      <stop
         offset="0"
         stop-color="#f8f6ef"
         id="stop2" />
      <stop
         offset="1"
         stop-color="#e7e4d6"
         id="stop3" />
    </linearGradient>
    <linearGradient
       inkscape:collect="always"
       xlink:href="#a"
       id="linearGradient6"
       gradientUnits="userSpaceOnUse"
       gradientTransform="matrix(0.0283,0,0,-0.0283,248.36,225.244)"
       x1="1959.712"
       y1="737.10699"
       x2="26066.213"
       y2="737.10699" />
    <linearGradient
       inkscape:collect="always"
       xlink:href="#a"
       id="linearGradient7"
       gradientUnits="userSpaceOnUse"
       gradientTransform="matrix(0.0283,0,0,-0.0283,248.36,225.244)"
       x1="1959.712"
       y1="737.10699"
       x2="26066.213"
       y2="737.10699" />
    <linearGradient
       inkscape:collect="always"
       xlink:href="#a"
       id="linearGradient8"
       gradientUnits="userSpaceOnUse"
       gradientTransform="matrix(0.0283,0,0,-0.0283,248.36,225.244)"
       x1="1959.712"
       y1="737.10699"
       x2="26066.213"
       y2="737.10699" />
    <linearGradient
       inkscape:collect="always"
       xlink:href="#a"
       id="linearGradient9"
       gradientUnits="userSpaceOnUse"
       gradientTransform="matrix(0.0283,0,0,-0.0283,248.36,225.244)"
       x1="1959.712"
       y1="737.10699"
       x2="26066.213"
       y2="737.10699" />
    <linearGradient
       inkscape:collect="always"
       xlink:href="#a"
       id="linearGradient10"
       gradientUnits="userSpaceOnUse"
       gradientTransform="matrix(0.0283,0,0,-0.0283,248.36,225.244)"
       x1="1959.712"
       y1="737.10699"
       x2="26066.213"
       y2="737.10699" />
    <linearGradient
       inkscape:collect="always"
       xlink:href="#a"
       id="linearGradient11"
       gradientUnits="userSpaceOnUse"
       gradientTransform="matrix(0.0283,0,0,-0.0283,248.36,225.244)"
       x1="1959.712"
       y1="737.10699"
       x2="26066.213"
       y2="737.10699" />
    <linearGradient
       inkscape:collect="always"
       xlink:href="#a"
       id="linearGradient12"
       gradientUnits="userSpaceOnUse"
       gradientTransform="matrix(0.0283,0,0,-0.0283,248.36,225.244)"
       x1="1959.712"
       y1="737.10699"
       x2="26066.213"
       y2="737.10699" />
    <linearGradient
       inkscape:collect="always"
       xlink:href="#a"
       id="linearGradient13"
       gradientUnits="userSpaceOnUse"
       gradientTransform="matrix(0.0283,0,0,-0.0283,248.36,225.244)"
       x1="1959.712"
       y1="737.10699"
       x2="26066.213"
       y2="737.10699" />
  </defs>
  <sodipodi:namedview
     id="namedview6"
     pagecolor="#ffffff"
     bordercolor="#000000"
     borderopacity="0.25"
     inkscape:showpageshadow="2"
     inkscape:pageopacity="0.0"
     inkscape:pagecheckerboard="0"
     inkscape:deskcolor="#d1d1d1"
     inkscape:document-units="pt"
     inkscape:zoom="0.60525"
     inkscape:cx="234.6138"
     inkscape:cy="301.52829"
     inkscape:window-width="2560"
     inkscape:window-height="1009"
     inkscape:window-x="1912"
     inkscape:window-y="-8"
     inkscape:window-maximized="1"
     inkscape:current-layer="svg6" />
  <metadata
     id="metadata1">
Created by potrace 1.14, written by Peter Selinger 2001-2017
</metadata>
  <g
     id="g21"
     transform="matrix(0.29903204,0,0,0.29903204,56.926674,109.72676)">
    <path
       fill="none"
       d="m 1138.734,931.095 h 0.283 m 0,0 h -0.283"
       id="path1" />
    <path
       d="m 1179.439,7.087 c 57.543,0 104.627,47.083 104.627,104.626 v 30.331 L 1138.706,245.877 643.833,586.771 148.96,242.419 V 931.095 H 111.713 C 54.17,931.095 7.086,884.013 7.086,826.47 V 111.742 C 7.086,54.198 54.17,7.115 111.713,7.115 L 643.833,401.64 1179.41,7.115 Z"
       fill="#e75a4d"
       id="path2" />
    <path
       fill="url(#a)"
       d="M 111.713,7.087 643.833,401.612 1179.439,7.087 Z"
       id="path3"
       style="fill:url(#linearGradient6)" />
    <path
       fill="#e7e4d7"
       d="m 148.96,242.419 v 688.676 h 989.774 V 245.877 L 643.833,586.771 Z"
       id="path4" />
    <path
       fill="#b8b7ae"
       d="M 148.96,931.095 643.833,586.771 641.593,585.185 148.96,923.527 Z"
       id="path5" />
    <path
       fill="#b7b6ad"
       d="m 1138.734,245.877 0.283,685.218 -495.184,-344.324 z"
       id="path6" />
    <path
       d="m 1284.066,142.044 0.17,684.51 c -2.494,76.082 -35.461,103.238 -145.219,104.514 l -0.283,-685.219 145.36,-103.833 z"
       fill="#b2392f"
       id="path7" />
    <path
       fill="url(#b)"
       d="M 111.713,7.087 643.833,401.612 1179.439,7.087 Z"
       id="path8"
       style="fill:url(#linearGradient7)" />
    <path
       fill="url(#c)"
       d="M 111.713,7.087 643.833,401.612 1179.439,7.087 Z"
       id="path10"
       style="fill:url(#linearGradient8)" />
    <path
       fill="url(#d)"
       d="M 111.713,7.087 643.833,401.612 1179.439,7.087 Z"
       id="path12"
       style="fill:url(#linearGradient9)" />
    <path
       fill="url(#e)"
       d="M 111.713,7.087 643.833,401.612 1179.439,7.087 Z"
       id="path14"
       style="fill:url(#linearGradient10)" />
    <path
       fill="url(#f)"
       d="M 111.713,7.087 643.833,401.612 1179.439,7.087 Z"
       id="path16"
       style="fill:url(#linearGradient11)" />
    <path
       fill="url(#g)"
       d="M 111.713,7.087 643.833,401.612 1179.439,7.087 Z"
       id="path18"
       style="fill:url(#linearGradient12)" />
    <path
       fill="url(#h)"
       d="M 111.713,7.087 643.833,401.612 1179.439,7.087 Z"
       id="path20"
       style="fill:url(#linearGradient13)" />
    <path
       fill="#f7f5ed"
       d="M 111.713,7.087 643.833,401.612 1179.439,7.087 Z"
       id="path21" />
  </g>
</svg>
